<?xml version="1.0" encoding="UTF-8"?>
<!-- Generator: Adobe Illustrator 21.1.0, SVG Export Plug-In . SVG Version: 6.00 Build 0)  -->
<svg version="1.1" id="Layer_1" xmlns="http://www.w3.org/2000/svg" xmlns:xlink="http://www.w3.org/1999/xlink" x="0px" y="0px" viewBox="0 0 341.2 335.2" style="enable-background:new 0 0 341.2 335.2;" xml:space="preserve"><script xmlns=""/>
<style type="text/css">
	.st0{fill:#7F3035;}
</style>
<title>Velocita-2020-LOGO</title>
<path class="st0" d="M204.4,59.4V26.6H174L204.4,59.4z M198.5,44.3l-10.9-11.7h10.9V44.3z M138.4,157.7L138.4,157.7h-3.2v3.1  c0,2.3-0.5,4.5-1.5,6.5l-15.5-9l0.3,24.6h0.9c11.1,0,20.4-8.2,21.9-19.2c13.8-1.5,24.3-13.1,24.3-27h-6.3  C159.2,148.4,149.9,157.7,138.4,157.7z M124.8,175.7l-0.1-6.2l5.3,3.1C128.5,174,126.7,175,124.8,175.7L124.8,175.7z M282.7,112  c0-61.9-50.1-112-112-112s-112,50.1-112,112s50.1,112,112,112C232.5,224,282.6,173.9,282.7,112L282.7,112z M170.7,217.7  C112.3,217.8,65,170.5,65,112.2c0-13.8,2.7-27.4,7.9-40.1H155l17.9,25.4h-18.3c-7.9,0-15.3,4-19.7,10.6c-5-9.4-16.7-13-26.1-8.1  c-6.3,3.4-10.3,10-10.3,17.1h-0.1c0,7.2-5.9,13-13.1,13.1v6.3c10.7,0,19.4-8.7,19.4-19.4h0.1c0-7.2,5.8-13.1,13.1-13.1  c7.2,0,13.1,5.8,13.1,13.1c0,0,0,0,0,0l0.1,9.4c-0.1,11.4-9.4,20.6-20.8,20.6h-3.2v3.1c0,2.3-0.5,4.5-1.5,6.5l-15.5-9l0.3,24.6h0.9  c11,0,20.4-8.2,21.9-19.2c12.6-1.4,22.6-11.3,24.1-23.9h34.6c2.4,5.1,7.5,8.3,13.2,8.3h45.9c0,7-2.8,13.6-7.8,18.5l-18.3-11v18.5  l0,0v6.3c17.9,0,32.5-14.6,32.5-32.5l0,0v-6.2h-32.4v-11.3l19.9-23h1.4c7,0,13.8,2.8,18.7,7.9L234,123.5l20.3-0.2h4.3v-1l-0.1-0.3  c-0.7-17.4-15-31.2-32.4-31.2h-4.3l0,0l0,0l0,0l0,0l-17,19.3V72H242v-6.3H75.7C101.3,13.2,164.6-8.5,217,17.1  c52.5,25.6,74.2,88.9,48.6,141.3C247.9,194.7,211.1,217.7,170.7,217.7L170.7,217.7z M170.3,123.1h-33v-2.2c0-9.5,7.7-17.2,17.2-17.2  h22.8l9.8,13.9l5.2-3.6l-29.5-42h35.8v59.4h-13.5c-4.6,0-8.3-3.7-8.3-8.4L170.3,123.1C170.3,123,170.3,123.1,170.3,123.1  L170.3,123.1z M101.8,162c-1.5,1.4-3.3,2.5-5.2,3.1l-0.1-6.2L101.8,162z M217.5,160.3c-2,1.2-4.2,2-6.5,2.6v-6.5L217.5,160.3z   M245.1,117.1l3.8-6.6c1.2,2,2,4.2,2.6,6.5L245.1,117.1z"/>
<path class="st0" d="M39.1,278l-14.9,55.9h-9.4L0,278h10.1l9.5,39L29,278H39.1z"/>
<path class="st0" d="M58.3,287.1v13.6h19.2v9H58.3v15.2h20.4v9h-30V278h30v9L58.3,287.1L58.3,287.1z"/>
<path class="st0" d="M100.9,324.9h19.9v9H91.3V278h9.6L100.9,324.9L100.9,324.9z"/>
<path class="st0" d="M163.5,317.7c0,9.8-6.8,17.5-17.6,17.5s-17.6-7.7-17.6-17.5v-23.5c0-9.7,6.8-17.4,17.6-17.4s17.6,7.7,17.6,17.4  V317.7z M137.9,317.9c0,4.7,3,8.2,8,8.2s8-3.5,8-8.2v-23.7c0-4.7-3-8.2-8-8.2s-8,3.5-8,8.2V317.9z"/>
<path class="st0" d="M210.4,317.7c0,9.7-6.7,17.4-17.3,17.4c-10.5,0-17-7.7-17-17.3v-23.5c0-9.7,6.6-17.4,17-17.4  s17.1,7.7,17.1,17.5v1.7h-9.7v-1.8c0-4.7-2.8-8.3-7.5-8.3s-7.3,3.6-7.3,8.2l-0.1,23.5c0,4.7,2.7,8.2,7.4,8.2s7.6-3.5,7.6-8.3v-2.4  h9.7L210.4,317.7L210.4,317.7z"/>
<path class="st0" d="M241.4,287.2v37.7h10.4v9h-30.3v-9h10.4v-37.7h-10.4v-9h30.3v9H241.4z"/>
<path class="st0" d="M298.1,287.2h-13.4v46.7h-9.6v-46.7h-13.4v-9h36.4V287.2z"/>
<path class="st0" d="M328.1,322.1h-13.8l-2.8,11.8h-10.1l14.9-55.9h10l14.9,55.9H331L328.1,322.1z M320.1,263.4l6.4,9.2h-9.3  l-7.8-9.2H320.1z M326,313.3l-4.8-20.2l-4.8,20.2H326z"/>
<script xmlns="" id="bw-fido2-page-script"/></svg>